<mxfile host="65bd71144e">
    <diagram id="on0QtZe1DOjciz5BIlGF" name="Page-1">
        <mxGraphModel dx="832" dy="563" grid="1" gridSize="10" guides="1" tooltips="1" connect="1" arrows="1" fold="1" page="1" pageScale="1" pageWidth="850" pageHeight="1100" math="0" shadow="0">
            <root>
                <mxCell id="0"/>
                <mxCell id="1" parent="0"/>
                <mxCell id="7" value="Goods" style="swimlane;fontColor=#FFFFFF;" vertex="1" parent="1">
                    <mxGeometry x="110" y="60" width="200" height="310" as="geometry"/>
                </mxCell>
                <mxCell id="8" value="id (PK)&lt;br&gt;" style="text;html=1;align=center;verticalAlign=middle;resizable=0;points=[];autosize=1;strokeColor=none;fillColor=none;fontColor=#FFFFFF;" vertex="1" parent="7">
                    <mxGeometry x="20" y="30" width="60" height="30" as="geometry"/>
                </mxCell>
                <mxCell id="10" value="name" style="text;html=1;align=center;verticalAlign=middle;resizable=0;points=[];autosize=1;strokeColor=none;fillColor=none;fontColor=#FFFFFF;" vertex="1" parent="7">
                    <mxGeometry x="22" y="60" width="50" height="30" as="geometry"/>
                </mxCell>
                <mxCell id="11" value="price" style="text;html=1;align=center;verticalAlign=middle;resizable=0;points=[];autosize=1;strokeColor=none;fillColor=none;fontColor=#FFFFFF;" vertex="1" parent="7">
                    <mxGeometry x="21" y="90" width="50" height="30" as="geometry"/>
                </mxCell>
                <mxCell id="12" value="weight" style="text;html=1;align=center;verticalAlign=middle;resizable=0;points=[];autosize=1;strokeColor=none;fillColor=none;fontColor=#FFFFFF;" vertex="1" parent="7">
                    <mxGeometry x="20" y="120" width="60" height="30" as="geometry"/>
                </mxCell>
                <mxCell id="13" value="description" style="text;html=1;align=center;verticalAlign=middle;resizable=0;points=[];autosize=1;strokeColor=none;fillColor=none;fontColor=#FFFFFF;" vertex="1" parent="7">
                    <mxGeometry x="22" y="150" width="80" height="30" as="geometry"/>
                </mxCell>
                <mxCell id="14" value="amount" style="text;html=1;align=center;verticalAlign=middle;resizable=0;points=[];autosize=1;strokeColor=none;fillColor=none;fontColor=#FFFFFF;" vertex="1" parent="7">
                    <mxGeometry x="23" y="180" width="60" height="30" as="geometry"/>
                </mxCell>
                <mxCell id="23" value="category_id (FK)" style="text;html=1;align=center;verticalAlign=middle;resizable=0;points=[];autosize=1;strokeColor=none;fillColor=none;fontColor=#FFFFFF;" vertex="1" parent="7">
                    <mxGeometry x="23" y="240" width="110" height="30" as="geometry"/>
                </mxCell>
                <mxCell id="25" value="consignment_id(FK)" style="text;whiteSpace=wrap;html=1;fontColor=#FFFFFF;" vertex="1" parent="7">
                    <mxGeometry x="30" y="210" width="100" height="40" as="geometry"/>
                </mxCell>
                <mxCell id="37" value="Consignment" style="swimlane;fontColor=#FFFFFF;" vertex="1" parent="1">
                    <mxGeometry x="340" y="290" width="200" height="100" as="geometry"/>
                </mxCell>
                <mxCell id="38" value="id (PK)&lt;br&gt;" style="text;html=1;align=center;verticalAlign=middle;resizable=0;points=[];autosize=1;strokeColor=none;fillColor=none;fontColor=#FFFFFF;" vertex="1" parent="37">
                    <mxGeometry x="20" y="30" width="60" height="30" as="geometry"/>
                </mxCell>
                <mxCell id="39" value="expiry_date" style="text;html=1;align=center;verticalAlign=middle;resizable=0;points=[];autosize=1;strokeColor=none;fillColor=none;fontColor=#FFFFFF;" vertex="1" parent="37">
                    <mxGeometry x="16" y="60" width="90" height="30" as="geometry"/>
                </mxCell>
                <mxCell id="46" value="Category" style="swimlane;fontColor=#FFFFFF;" vertex="1" parent="1">
                    <mxGeometry x="340" y="410" width="200" height="100" as="geometry"/>
                </mxCell>
                <mxCell id="47" value="id (PK)&lt;br&gt;" style="text;html=1;align=center;verticalAlign=middle;resizable=0;points=[];autosize=1;strokeColor=none;fillColor=none;fontColor=#FFFFFF;" vertex="1" parent="46">
                    <mxGeometry x="20" y="30" width="60" height="30" as="geometry"/>
                </mxCell>
                <mxCell id="48" value="category_name" style="text;html=1;align=center;verticalAlign=middle;resizable=0;points=[];autosize=1;strokeColor=none;fillColor=none;fontColor=#FFFFFF;" vertex="1" parent="46">
                    <mxGeometry x="6" y="60" width="110" height="30" as="geometry"/>
                </mxCell>
                <mxCell id="50" value="Good come in varupartier, each with different expiry date" style="text;html=1;align=center;verticalAlign=middle;resizable=0;points=[];autosize=1;strokeColor=none;fillColor=none;fontColor=#FFFFFF;" vertex="1" parent="1">
                    <mxGeometry x="340" y="215" width="320" height="30" as="geometry"/>
                </mxCell>
            </root>
        </mxGraphModel>
    </diagram>
</mxfile>